Format                           : MPEG-TS
File size                        : 372 MiB
Duration                         : 4mn 2s
Overall bit rate                 : 12.9 Mbps

Video
ID                               : 5400 (0x1518)
Menu ID                          : 6941 (0x1B1D)
Format                           : AVC
Format/Info                      : Advanced Video Codec
Format profile                   : High@L4.0
Format settings, CABAC           : Yes
Format settings, ReFrames        : 4 frames
Format settings, GOP             : M=4, N=12
Codec ID                         : 27
Duration                         : 4mn 2s
Bit rate                         : 11.8 Mbps
Width                            : 1 440 pixels
Height                           : 1 080 pixels
Display aspect ratio             : 16:9
Frame rate                       : 25.000 fps
Color space                      : YUV
Chroma subsampling               : 4:2:0
Bit depth                        : 8 bits
Scan type                        : MBAFF
Bits/(Pixel*Frame)               : 0.303
Stream size                      : 340 MiB (91%)
Color primaries                  : BT.709-5, BT.1361, IEC 61966-2-4, SMPTE RP177
Transfer characteristics         : BT.709-5, BT.1361
Matrix coefficients              : BT.709-5, BT.1361, IEC 61966-2-4 709, SMPTE RP177

Audio #1
ID                               : 5401 (0x1519)
Menu ID                          : 6941 (0x1B1D)
Format                           : AC-3
Format/Info                      : Audio Coding 3
Mode extension                   : CM (complete main)
Codec ID                         : 6
Duration                         : 4mn 2s
Bit rate mode                    : Constant
Bit rate                         : 192 Kbps
Channel(s)                       : 2 channels
Channel positions                : Front: L R
Sampling rate                    : 48.0 KHz
Bit depth                        : 16 bits
Compression mode                 : Lossy
Delay relative to video          : 20ms
Stream size                      : 5.55 MiB (1%)
Language                         : English

Audio #2
ID                               : 5402 (0x151A)
Menu ID                          : 6941 (0x1B1D)
Format                           : MPEG Audio
Format version                   : Version 1
Format profile                   : Layer 2
Codec ID                         : 3
Duration                         : 4mn 2s
Bit rate mode                    : Constant
Bit rate                         : 256 Kbps
Channel(s)                       : 2 channels
Sampling rate                    : 48.0 KHz
Compression mode                 : Lossy
Delay relative to video          : 28ms
Stream size                      : 7.40 MiB (2%)
Language                         : nar

Text #1
ID                               : 5403 (0x151B)-888
Menu ID                          : 6941 (0x1B1D)
Format                           : Teletext Subtitle
Language                         : English

Text #2
ID                               : 5404 (0x151C)
Menu ID                          : 6941 (0x1B1D)
Format                           : DVB Subtitle
Codec ID                         : 6
Duration                         : 4mn 1s
Delay relative to video          : 57ms
Language                         : English
